<svg xmlns="http://www.w3.org/2000/svg" width="34" height="34" viewBox="0 0 34 34"><path fill="#002DA1" d="M25,23.735119 L23.735119,25 L17.6339286,18.8988095 C15.7738095,20.4861111 13.343254,21.4285714 10.7142857,21.4285714 C4.78670635,21.4285714 0,16.6418651 0,10.7142857 C0,4.78670635 4.78670635,0 10.7142857,0 C16.6418651,0 21.4285714,4.78670635 21.4285714,10.7142857 C21.4285714,13.343254 20.4861111,15.7738095 18.8988095,17.6339286 L25,23.735119 Z M10.7142857,19.6428571 C15.6498016,19.6428571 19.6428571,15.6498016 19.6428571,10.7142857 C19.6428571,5.77876984 15.6498016,1.78571429 10.7142857,1.78571429 C5.77876984,1.78571429 1.78571429,5.77876984 1.78571429,10.7142857 C1.78571429,15.6498016 5.77876984,19.6428571 10.7142857,19.6428571 Z" transform="translate(5 5)"/></svg>