<svg xmlns="http://www.w3.org/2000/svg" width="37.681" height="36.752" viewBox="0 0 37.681 36.752">
  <path id="iconfinder_mark-github_298822" d="M18.84,0a18.842,18.842,0,0,0-5.955,36.717c.942.173,1.286-.409,1.286-.906,0-.448-.017-1.934-.026-3.507C8.905,33.442,7.8,30.082,7.8,30.082a5,5,0,0,0-2.092-2.755c-1.712-1.168.13-1.145.13-1.145a3.954,3.954,0,0,1,2.888,1.941,4.01,4.01,0,0,0,5.483,1.564,4.028,4.028,0,0,1,1.2-2.516c-4.182-.476-8.582-2.093-8.582-9.312A7.294,7.294,0,0,1,8.758,12.8a6.786,6.786,0,0,1,.186-4.988s1.58-.506,5.182,1.932a17.835,17.835,0,0,1,9.432,0c3.595-2.44,5.177-1.932,5.177-1.932a6.758,6.758,0,0,1,.189,4.986,7.273,7.273,0,0,1,1.936,5.056c0,7.238-4.407,8.831-8.6,9.3a4.488,4.488,0,0,1,1.279,3.487c0,2.518-.025,4.549-.025,5.17,0,.5.343,1.088,1.3.9A18.844,18.844,0,0,0,18.84,0Z" fill="#ff534b"/>
</svg>
